<?xml version="1.0" encoding="utf-8"?>
<!DOCTYPE svg PUBLIC "-//W3C//DTD SVG 1.1//EN" "http://www.w3.org/Graphics/SVG/1.1/DTD/svg11.dtd">
<svg version="1.1" id="Layer_1" xmlns="http://www.w3.org/2000/svg" xmlns:xlink="http://www.w3.org/1999/xlink" x="0px" y="0px"
	 width="215.071px" height="161.625px" viewBox="0 0 215.071 161.625" enable-background="new 0 0 215.071 161.625"
	 xml:space="preserve">
<path fill="#b9b9b9" d="M20.48,44.23c0,0,15-46,66-21c0,0,40-46.884,57-7.442c0,0,61-11.558,54,28.442c0,0,36,34,5,54
	c0,0-26,51-41,36c0,0-15.41,37-43.705,25c0,0-64.295,10-57.295-27c0,0-47,2-40-31c0,0-32-13-16-35
	C4.48,66.23-0.52,35.23,20.48,44.23z"/>
</svg>
